<?xml version="1.0" encoding="UTF-8"?> <svg xmlns="http://www.w3.org/2000/svg" id="Layer_1" data-name="Layer 1" viewBox="0 0 1035.1 375.04"><defs><style>.cls-1{fill:#3583f6;}.cls-2{fill:#4e4d4e;}</style></defs><title>LF_Logo-Natural</title><path class="cls-1" d="M361.56,8.77V283.53a82.74,82.74,0,0,1-82.74,82.74H4.56V91.51A82.74,82.74,0,0,1,87.3,8.77ZM214.94,184.5,221,163.9l-28.38,8.79L223,69.79A5.11,5.11,0,0,0,218,63.28H179.62a6.79,6.79,0,0,0-6.53,4.92l-36,121.75-28.41,8.8-6.08,20.6L131,210.55l-25.65,86.67,151.74,0a6.8,6.8,0,0,0,6.54-4.93l8.53-29.79a5.1,5.1,0,0,0-4.91-6.5L168,256l18.49-62.69Z"></path><path class="cls-2" d="M473.35,224.49a1.11,1.11,0,0,1-.81.34H440.22a.41.41,0,0,0-.46.46l-3.11,24.85a.41.41,0,0,0,.46.46h21.17q1.15,0,.92,1.15l-.81,7.25a1.22,1.22,0,0,1-1.27,1.15H436a.71.71,0,0,0-.4.12.39.39,0,0,0-.17.34l-4.14,34.05a1.22,1.22,0,0,1-1.27,1.15h-8.51q-1.15,0-.92-1.15l9.55-78.23a1.22,1.22,0,0,1,1.27-1.15H473.7q1.15,0,.92,1.15l-.92,7.25A1.1,1.1,0,0,1,473.35,224.49Z"></path><path class="cls-2" d="M483.88,291.28q-5.7-5.58-5.7-14.9,0-1.15.23-3.91l4.14-33.83A28.12,28.12,0,0,1,487,226a25.47,25.47,0,0,1,9.49-8.57,27.43,27.43,0,0,1,12.94-3q9.89,0,15.65,5.52t5.75,14.84q0,1.15-.23,3.91l-4.14,33.83a27.51,27.51,0,0,1-8.86,17.66,26.36,26.36,0,0,1-18.29,6.73Q489.57,296.86,483.88,291.28Zm26.86-8a16.54,16.54,0,0,0,4.95-10.35l4.26-34.51a17.47,17.47,0,0,0,.12-2.3,12.35,12.35,0,0,0-3.16-8.86,11.25,11.25,0,0,0-8.57-3.34,13.78,13.78,0,0,0-10.07,4,17.74,17.74,0,0,0-5,10.47l-4.14,34.51a19.77,19.77,0,0,0-.11,2.53,11.57,11.57,0,0,0,3.16,8.57,11.42,11.42,0,0,0,8.46,3.16A14.19,14.19,0,0,0,510.74,283.28Z"></path><path class="cls-2" d="M548.48,291.16q-5.64-5.58-5.64-15.13,0-1.15.23-3.91l6.79-55.68a1.22,1.22,0,0,1,1.27-1.15h8.51q1.15,0,.92,1.15l-6.9,56.37a17.32,17.32,0,0,0-.12,2.3,12.28,12.28,0,0,0,3.11,8.8,10.88,10.88,0,0,0,8.28,3.28,13.89,13.89,0,0,0,10.07-4,17,17,0,0,0,4.89-10.41l6.9-56.37a1.7,1.7,0,0,1,.46-.81,1.1,1.1,0,0,1,.8-.34h8.51c.69,0,1,.38,1,1.15l-6.9,55.68Q589.32,283.28,582,290a25.94,25.94,0,0,1-18.18,6.73Q554.11,296.74,548.48,291.16Z"></path><path class="cls-2" d="M605.54,294.67l9.55-78.23a1.22,1.22,0,0,1,1.27-1.15h8.4a1.26,1.26,0,0,1,1.27.81l20.48,54.19a.63.63,0,0,0,.4.23q.17,0,.17-.35l6.67-53.73a1.22,1.22,0,0,1,1.26-1.15h8.28a1.06,1.06,0,0,1,.86.34.87.87,0,0,1,.17.81l-9.66,78.23a1.18,1.18,0,0,1-1.15,1.15H645q-1.15,0-1.27-.81L623.26,240.6c-.08-.15-.17-.23-.29-.23s-.21.11-.29.34l-6.44,54a1.22,1.22,0,0,1-1.26,1.15h-8.51Q605.31,295.82,605.54,294.67Z"></path><path class="cls-2" d="M672.84,294.67l9.55-78.23a1.22,1.22,0,0,1,1.27-1.15h22.67q9.43,0,14.84,5.06T726.57,234q0,1-.23,3.57L722,273.5q-1.27,10.13-8.23,16.22t-17.32,6.1H673.76Q672.61,295.82,672.84,294.67Zm12.2-8.4,12.77-.12a12.25,12.25,0,0,0,9.09-3.74,16.91,16.91,0,0,0,4.49-10.07l4.14-33.59a23.24,23.24,0,0,0,.11-2.65,11.79,11.79,0,0,0-2.76-8.23,9.73,9.73,0,0,0-7.59-3H692.52a.41.41,0,0,0-.46.46l-7.48,60.52A.41.41,0,0,0,685,286.27Z"></path><path class="cls-2" d="M772.36,294.79l-2.19-21.22c0-.23-.16-.35-.46-.35l-24.15,7.88a.53.53,0,0,0-.58.35L740,294.79a1.35,1.35,0,0,1-1.38,1h-8.74a.89.89,0,0,1-.8-.34,1,1,0,0,1,0-.92l30.26-78.23a1.48,1.48,0,0,1,1.38-1h10.47a.91.91,0,0,1,1,1l11.16,78.23v.23c0,.69-.38,1-1.15,1h-8.74Q772.36,295.82,772.36,294.79Zm-23-24.52a.39.39,0,0,0,.35.17l18.78-6a.55.55,0,0,0,.4-.17c.12-.12.13-.21.06-.29l-4.48-33.54c-.08-.15-.15-.23-.23-.23s-.16.08-.23.23L749.31,270C749.23,270.05,749.23,270.15,749.31,270.26Z"></path><path class="cls-2" d="M842.14,215.63a.87.87,0,0,1,.17.81l-.92,7.36a1.11,1.11,0,0,1-.34.81,1.25,1.25,0,0,1-.92.34H822.18a.41.41,0,0,0-.46.46l-8.51,69.26a1.22,1.22,0,0,1-1.27,1.15h-8.51q-1.15,0-.92-1.15L811,225.41a.41.41,0,0,0-.46-.46H793.41q-1,0-1-1.15l.92-7.36a1.22,1.22,0,0,1,1.27-1.15h46.83A.93.93,0,0,1,842.14,215.63Z"></path><path class="cls-2" d="M845.18,294.67l9.55-78.23a1.22,1.22,0,0,1,1.27-1.15h8.51q1.15,0,.92,1.15l-9.55,78.23a1.22,1.22,0,0,1-1.26,1.15h-8.51Q845,295.82,845.18,294.67Z"></path><path class="cls-2" d="M881.14,291.28q-5.7-5.58-5.7-14.9,0-1.15.23-3.91l4.14-33.83A28.12,28.12,0,0,1,884.3,226a25.46,25.46,0,0,1,9.49-8.57,27.43,27.43,0,0,1,12.94-3q9.89,0,15.65,5.52t5.75,14.84q0,1.15-.23,3.91l-4.14,33.83a27.51,27.51,0,0,1-8.86,17.66,26.36,26.36,0,0,1-18.29,6.73Q886.83,296.86,881.14,291.28Zm26.86-8a16.54,16.54,0,0,0,4.95-10.35l4.26-34.51a17.47,17.47,0,0,0,.12-2.3,12.35,12.35,0,0,0-3.16-8.86,11.25,11.25,0,0,0-8.57-3.34,13.78,13.78,0,0,0-10.07,4,17.74,17.74,0,0,0-5,10.47l-4.14,34.51a19.75,19.75,0,0,0-.12,2.53,11.57,11.57,0,0,0,3.16,8.57,11.42,11.42,0,0,0,8.46,3.16A14.19,14.19,0,0,0,908,283.28Z"></path><path class="cls-2" d="M938.26,294.67l9.55-78.23a1.22,1.22,0,0,1,1.27-1.15h8.4a1.26,1.26,0,0,1,1.27.81l20.48,54.19a.63.63,0,0,0,.4.23q.17,0,.17-.35l6.67-53.73a1.22,1.22,0,0,1,1.26-1.15H996a1.06,1.06,0,0,1,.86.34.87.87,0,0,1,.17.81l-9.66,78.23a1.18,1.18,0,0,1-1.15,1.15h-8.51q-1.15,0-1.27-.81L956,240.6c-.08-.15-.17-.23-.29-.23s-.21.11-.29.34l-6.44,54a1.22,1.22,0,0,1-1.26,1.15h-8.51Q938,295.82,938.26,294.67Z"></path><path class="cls-2" d="M433.24,189.93,448.5,66.44a1.93,1.93,0,0,1,2-1.82h8.9q1.63,0,1.63,1.82L447,179.76a.73.73,0,0,0,.18.54.51.51,0,0,0,.36.18H499q1.81,0,1.45,1.82l-.91,7.63a1.93,1.93,0,0,1-2,1.82H434.88Q433.24,191.74,433.24,189.93Z"></path><path class="cls-2" d="M512.42,189.93,527.67,66.44a1.93,1.93,0,0,1,2-1.82h8.9q1.63,0,1.63,1.82L524.95,189.93a1.93,1.93,0,0,1-2,1.82h-8.9Q512.42,191.74,512.42,189.93Z"></path><path class="cls-2" d="M629.55,66.44l-1.09,7.63a1.86,1.86,0,0,1-1.82,1.82H597.77a.64.64,0,0,0-.73.73l-14,113.32a1.74,1.74,0,0,1-.54,1.27,2,2,0,0,1-1.45.54h-8.9q-1.82,0-1.45-1.82l13.8-113.32c0-.48-.18-.73-.54-.73H556.18a1.46,1.46,0,0,1-1.18-.54,1.36,1.36,0,0,1-.27-1.27l.91-7.63a1.93,1.93,0,0,1,2-1.82h70.28Q629.55,64.62,629.55,66.44Z"></path><path class="cls-2" d="M710,75.88H657.15a.64.64,0,0,0-.73.73l-5.63,45a.64.64,0,0,0,.73.73h35.59q1.81,0,1.45,1.82l-.91,7.63a1.93,1.93,0,0,1-2,1.82H650.07a.64.64,0,0,0-.73.73l-5.63,45.4a.73.73,0,0,0,.18.54.51.51,0,0,0,.36.18H697.1a1.67,1.67,0,0,1,1.36.54,1.37,1.37,0,0,1,.27,1.27l-.91,7.63a1.93,1.93,0,0,1-2,1.82H631.55q-1.63,0-1.63-1.82L645.17,66.44a1.93,1.93,0,0,1,2-1.82h64.29q1.81,0,1.45,1.82L712,74.06A1.93,1.93,0,0,1,710,75.88Z"></path><path class="cls-2" d="M724,185.11Q715.44,177,715.45,163q0-1.63.36-5.63l7.26-58.66q1.81-16.16,12.8-25.88T763,63.17q14.71,0,23.25,8.08t8.54,21.88q0,1.63-.36,5.27l-.18,1.63a2.7,2.7,0,0,1-.73,1.27,1.75,1.75,0,0,1-1.27.54l-9.08.36a1.44,1.44,0,0,1-1.63-1.63l.36-2.54a29.66,29.66,0,0,0,.18-3.81q0-9.08-5.54-14.44t-15-5.36Q751,74.43,744,80.87T735.6,98l-7.45,60.29A27.32,27.32,0,0,0,728,162q0,9.08,5.45,14.53t14.89,5.45A25.32,25.32,0,0,0,766,175.4a26.56,26.56,0,0,0,8.44-17.07l.36-2.54a1.87,1.87,0,0,1,2-1.63l8.9.54q1.63,0,1.63,1.45l-.36,1.63q-1.82,16-12.8,25.7T747,193.2Q732.51,193.2,724,185.11Z"></path><path class="cls-2" d="M811.06,184.75q-8.63-8.44-8.63-22.61,0-1.81.36-5.81l6.9-56.12q2-16.71,13.17-26.88t27.33-10.17q14.71,0,23.43,8.54t8.72,22.7q0,1.82-.36,5.81l-6.9,56.12q-2,16.53-13.26,26.7T834.39,193.2Q819.68,193.2,811.06,184.75ZM853.74,175q7.35-6.9,8.81-18.16l7.08-57a34.43,34.43,0,0,0,.18-4q0-9.81-5.63-15.62t-15.25-5.81a25.23,25.23,0,0,0-18.07,7q-7.35,7-8.63,18.43l-7.08,57a31.12,31.12,0,0,0-.18,4q0,9.63,5.63,15.35t15.07,5.72A25.41,25.41,0,0,0,853.74,175Z"></path><path class="cls-2" d="M891.05,189.93,906.31,66.44a1.93,1.93,0,0,1,2-1.82h8.9q1.63,0,1.63,1.82L903.58,189.93a1.93,1.93,0,0,1-2,1.82h-8.9Q891.05,191.74,891.05,189.93Z"></path><path class="cls-2" d="M927,189.93,942.27,66.44a1.93,1.93,0,0,1,2-1.82h8.9q1.81,0,2,1.27l35.59,95.71a1,1,0,0,0,.64.36q.27,0,.27-.54l11.62-95a2.69,2.69,0,0,1,.73-1.27,1.74,1.74,0,0,1,1.27-.54h9.08q1.81,0,1.45,1.82l-15.07,123.49a1.93,1.93,0,0,1-2,1.82h-9.26c-1.09,0-1.7-.42-1.82-1.27L952.07,94.4c-.24-.24-.45-.33-.64-.27s-.27.27-.27.64l-11.62,95.16a1.93,1.93,0,0,1-2,1.82h-8.9Q927,191.74,927,189.93Z"></path></svg> 